<svg xmlns="http://www.w3.org/2000/svg" width="154" height="182" fill="none" viewBox="0 0 154 182"><rect width="129" height="181" x=".5" y=".5" fill="#FAFF15" stroke="#000" rx="31.5"/><rect width="107" height="66" x="12" y="45" fill="#433B3B"/><rect width="89" height="49" x="21" y="54" fill="#C4C4C4"/><rect width="79" height="29" x="27" y="66" fill="#252020"/><g filter="url(#filter0_d)"><rect width="24" height="13" x="53" y="7" fill="#D8C0C0"/><rect width="23" height="12" x="53.5" y="7.5" stroke="#8E8484"/></g><g filter="url(#filter1_d)"><path fill="#C4C4C4" d="M81 28.5C81 37.0604 74.0604 44 65.5 44C56.9396 44 50 37.0604 50 28.5C50 19.9396 56.9396 13 65.5 13C74.0604 13 81 19.9396 81 28.5Z"/><path stroke="#8E8484" d="M80.5 28.5C80.5 36.7843 73.7843 43.5 65.5 43.5C57.2157 43.5 50.5 36.7843 50.5 28.5C50.5 20.2157 57.2157 13.5 65.5 13.5C73.7843 13.5 80.5 20.2157 80.5 28.5Z"/></g><path fill="#333030" d="M130 67L153 68.6429V87.125L130 90V67Z"/><line x1="152.97" x2="129.97" y1="69.59" y2="68.196" stroke="#000" stroke-opacity=".37"/><line x1="152.97" x2="129.97" y1="70.984" y2="69.59" stroke="#000" stroke-opacity=".37"/><line x1="152.97" x2="129.97" y1="72.378" y2="70.984" stroke="#000" stroke-opacity=".37"/><line x1="152.97" x2="129.97" y1="73.772" y2="72.378" stroke="#000" stroke-opacity=".37"/><line x1="152.97" x2="129.97" y1="75.166" y2="73.772" stroke="#000" stroke-opacity=".37"/><line x1="152.97" x2="129.97" y1="76.56" y2="75.166" stroke="#000" stroke-opacity=".37"/><line x1="153.06" x2="130.06" y1="86.315" y2="89.102" stroke="#000" stroke-opacity=".37"/><line x1="153.06" x2="130.06" y1="84.921" y2="87.709" stroke="#000" stroke-opacity=".37"/><line x1="153.06" x2="130.06" y1="83.527" y2="86.315" stroke="#000" stroke-opacity=".37"/><line x1="153.06" x2="130.06" y1="82.133" y2="84.921" stroke="#000" stroke-opacity=".37"/><line x1="153.06" x2="130.06" y1="80.739" y2="83.527" stroke="#000" stroke-opacity=".37"/><line x1="153.06" x2="130.06" y1="77.951" y2="80.739" stroke="#000" stroke-opacity=".37"/><line x1="152.334" x2="130.031" y1="77.954" y2="79.347" stroke="#000" stroke-opacity=".37"/><line x1="152.287" x2="129.984" y1="77.257" y2="76.56" stroke="#000" stroke-opacity=".37"/><line x1="153.015" x2="130.015" y1="77.257" y2="77.954" stroke="#000" stroke-opacity=".37"/><line x1="153.06" x2="130.06" y1="79.345" y2="82.133" stroke="#000" stroke-opacity=".37"/><defs><filter id="filter0_d" width="32" height="21" x="49" y="7" color-interpolation-filters="sRGB" filterUnits="userSpaceOnUse"><feFlood flood-opacity="0" result="BackgroundImageFix"/><feColorMatrix in="SourceAlpha" type="matrix" values="0 0 0 0 0 0 0 0 0 0 0 0 0 0 0 0 0 0 127 0"/><feOffset dy="4"/><feGaussianBlur stdDeviation="2"/><feColorMatrix type="matrix" values="0 0 0 0 0 0 0 0 0 0 0 0 0 0 0 0 0 0 0.25 0"/><feBlend in2="BackgroundImageFix" mode="normal" result="effect1_dropShadow"/><feBlend in="SourceGraphic" in2="effect1_dropShadow" mode="normal" result="shape"/></filter><filter id="filter1_d" width="39" height="39" x="46" y="13" color-interpolation-filters="sRGB" filterUnits="userSpaceOnUse"><feFlood flood-opacity="0" result="BackgroundImageFix"/><feColorMatrix in="SourceAlpha" type="matrix" values="0 0 0 0 0 0 0 0 0 0 0 0 0 0 0 0 0 0 127 0"/><feOffset dy="4"/><feGaussianBlur stdDeviation="2"/><feColorMatrix type="matrix" values="0 0 0 0 0 0 0 0 0 0 0 0 0 0 0 0 0 0 0.25 0"/><feBlend in2="BackgroundImageFix" mode="normal" result="effect1_dropShadow"/><feBlend in="SourceGraphic" in2="effect1_dropShadow" mode="normal" result="shape"/></filter></defs></svg>